<svg width="64" height="64" viewBox="0 0 64 64" fill="none" xmlns="http://www.w3.org/2000/svg">
  <rect width="64" height="64" rx="12" fill="#667eea"/>
  <path d="M32 16C25.4 16 20 21.4 20 28C20 34.6 25.4 40 32 40C38.6 40 44 34.6 44 28C44 21.4 38.6 16 32 16Z" stroke="white" stroke-width="2" stroke-linecap="round" stroke-linejoin="round"/>
  <path d="M28 28L32 32L36 28" stroke="white" stroke-width="2" stroke-linecap="round" stroke-linejoin="round"/>
  <path d="M32 40V48" stroke="white" stroke-width="2" stroke-linecap="round"/>
  <path d="M24 48H40" stroke="white" stroke-width="2" stroke-linecap="round"/>
  <circle cx="26" cy="26" r="1.5" fill="white"/>
  <circle cx="38" cy="26" r="1.5" fill="white"/>
  <path d="M16 20L20 16M48 20L44 16M16 36L20 40M48 36L44 40" stroke="white" stroke-width="1.5" stroke-linecap="round" opacity="0.6"/>
  <path d="M20 20L24 24M44 20L40 24M20 36L24 32M44 36L40 32" stroke="white" stroke-width="1" stroke-linecap="round" opacity="0.4"/>
</svg>
