<svg width="64" height="64" viewBox="0 0 64 64" fill="none" xmlns="http://www.w3.org/2000/svg">
  <rect width="64" height="64" rx="12" fill="#667eea"/>
  <path d="M16 48L24 36L32 40L40 24L48 32" stroke="white" stroke-width="2" stroke-linecap="round" stroke-linejoin="round"/>
  <circle cx="16" cy="48" r="2" fill="white"/>
  <circle cx="24" cy="36" r="2" fill="white"/>
  <circle cx="32" cy="40" r="2" fill="white"/>
  <circle cx="40" cy="24" r="2" fill="white"/>
  <circle cx="48" cy="32" r="2" fill="white"/>
  <path d="M16 16H48C49.1 16 50 16.9 50 18V50C50 51.1 49.1 52 48 52H16C14.9 52 14 51.1 14 50V18C14 16.9 14.9 16 16 16Z" stroke="white" stroke-width="1.5" stroke-linecap="round" stroke-linejoin="round" opacity="0.3"/>
  <path d="M20 20H44M20 24H40M20 28H36M20 32H32" stroke="white" stroke-width="1" stroke-linecap="round" opacity="0.2"/>
</svg>
