<svg width="64" height="64" viewBox="0 0 64 64" fill="none" xmlns="http://www.w3.org/2000/svg">
  <rect width="64" height="64" rx="12" fill="#667eea"/>
  <path d="M20 24H44C45.1 24 46 24.9 46 26V38C46 39.1 45.1 40 44 40H20C18.9 40 18 39.1 18 38V26C18 24.9 18.9 24 20 24Z" stroke="white" stroke-width="2" stroke-linecap="round" stroke-linejoin="round"/>
  <path d="M24 28H40M24 32H40M24 36H36" stroke="white" stroke-width="1.5" stroke-linecap="round"/>
  <path d="M32 16L36 20L32 24L28 20L32 16Z" fill="white"/>
  <path d="M32 40L36 44L32 48L28 44L32 40Z" fill="white"/>
  <path d="M12 32L16 28L20 32L16 36L12 32Z" fill="white"/>
  <path d="M44 32L48 28L52 32L48 36L44 32Z" fill="white"/>
  <path d="M32 20V24M32 40V44M20 32H16M44 32H48" stroke="white" stroke-width="1.5" stroke-linecap="round"/>
</svg>
