<svg width="64" height="64" viewBox="0 0 64 64" fill="none" xmlns="http://www.w3.org/2000/svg">
  <rect width="64" height="64" rx="12" fill="#667eea"/>
  <path d="M32 12C20.96 12 12 20.96 12 32C12 43.04 20.96 52 32 52C43.04 52 52 43.04 52 32C52 20.96 43.04 12 32 12ZM32 48C23.16 48 16 40.84 16 32C16 23.16 23.16 16 32 16C40.84 16 48 23.16 48 32C48 40.84 40.84 48 32 48Z" fill="white"/>
  <path d="M32 20V32L40 36" stroke="white" stroke-width="2" stroke-linecap="round" stroke-linejoin="round"/>
  <circle cx="32" cy="32" r="2" fill="white"/>
  <path d="M8 8L12 12M56 8L52 12M8 56L12 52M56 56L52 52" stroke="white" stroke-width="1.5" stroke-linecap="round" opacity="0.3"/>
</svg>
