<svg width="64" height="64" viewBox="0 0 64 64" fill="none" xmlns="http://www.w3.org/2000/svg">
  <rect width="64" height="64" rx="12" fill="#667eea"/>
  <path d="M32 12L40 20L32 28L24 20L32 12Z" fill="white"/>
  <path d="M32 28L40 36L32 44L24 36L32 28Z" fill="white"/>
  <path d="M32 44L40 52L32 60L24 52L32 44Z" fill="white"/>
  <path d="M12 32L20 40L12 48L4 40L12 32Z" fill="white"/>
  <path d="M52 32L60 40L52 48L44 40L52 32Z" fill="white"/>
  <path d="M32 20L40 28L32 36L24 28L32 20Z" fill="white" opacity="0.6"/>
  <path d="M32 36L40 44L32 52L24 44L32 36Z" fill="white" opacity="0.6"/>
  <path d="M20 32L28 40L20 48L12 40L20 32Z" fill="white" opacity="0.6"/>
  <path d="M44 32L52 40L44 48L36 40L44 32Z" fill="white" opacity="0.6"/>
  <circle cx="32" cy="32" r="2" fill="white"/>
</svg>
