<svg width="64" height="64" viewBox="0 0 64 64" fill="none" xmlns="http://www.w3.org/2000/svg">
  <rect width="64" height="64" rx="12" fill="#000000"/>
  <path d="M32 16C23.16 16 16 23.16 16 32C16 40.84 23.16 48 32 48C40.84 48 48 40.84 48 32C48 23.16 40.84 16 32 16Z" stroke="white" stroke-width="2" stroke-linecap="round" stroke-linejoin="round"/>
  <path d="M24 24H40C41.1 24 42 24.9 42 26V38C42 39.1 41.1 40 40 40H24C22.9 40 22 39.1 22 38V26C22 24.9 22.9 24 24 24Z" stroke="white" stroke-width="2" stroke-linecap="round" stroke-linejoin="round"/>
  <path d="M26 28H38M26 32H38M26 36H34" stroke="white" stroke-width="1.5" stroke-linecap="round"/>
  <circle cx="28" cy="38" r="1.5" fill="white"/>
  <circle cx="32" cy="38" r="1.5" fill="white"/>
  <circle cx="36" cy="38" r="1.5" fill="white"/>
  <path d="M32 12L36 16L32 20L28 16L32 12Z" fill="white"/>
</svg>
